<?xml version="1.0" encoding="UTF-8"?>
<svg id="b" data-name="Layer 2" xmlns="http://www.w3.org/2000/svg" width="500.865" height="64.752" viewBox="0 0 500.865 64.752">
  <g id="c" data-name="LOGO 2">
    <path d="M179.226,64.752V0h66.283v11.026h-51.214v14.458h29.895v11.026h-29.895v16.05h51.826v12.192h-66.895Z" fill="#fff" stroke-width="0"/>
    <g>
      <path d="M445.963,11.026v53.725h-15.07V11.026h-29.71V0h74.614v11.026h-29.833Z" fill="#fff" stroke-width="0"/>
      <path d="M485.796,64.752V0h15.069v64.752h-15.069Z" fill="#fff" stroke-width="0"/>
    </g>
    <path d="M303.045,40.309h8.454c5.146,0,8.872-1,11.18-3.003,2.306-2,3.461-5.183,3.461-9.556v-15.192c0-4.411-1.155-7.606-3.461-9.588C320.371.991,316.645,0,311.499,0h-55.99v11.026h49.313c2.614,0,4.401.379,5.361,1.136.959.754,1.439,2.071,1.439,3.95v7.228c0,1.92-.481,3.257-1.439,4.012-.96.757-2.747,1.133-5.361,1.133h-48.701v36.268h14.825v-24.443h14.273l26.096,24.443h21.625l-29.895-24.443Z" fill="#fff" stroke-width="0"/>
    <g>
      <g>
        <path d="M0,64.752V0h15.069v52.56h48.579v12.192H0Z" fill="#fff" stroke-width="0"/>
        <path d="M73.648,64.752V0h15.069v64.752h-15.069Z" fill="#fff" stroke-width="0"/>
      </g>
      <path d="M166.193,35.348c-2.022-2.166-4.89-3.491-8.606-3.982,3.593-.45,6.349-1.604,8.269-3.461s2.88-4.34,2.88-7.443v-7.902c0-4.37-1.145-7.556-3.43-9.556C163.017,1.003,159.322,0,154.218,0h-55.501v11.026h49.19c2.614,0,4.421.358,5.421,1.071,1.001.716,1.501,1.911,1.501,3.583v5.148c0,1.716-.5,2.92-1.501,3.615-1,.695-2.808,1.041-5.421,1.041h-49.19v39.268h51.458c6.411,0,11.189-1.041,14.334-3.124,3.145-2.083,4.717-5.269,4.717-9.556v-8.272c0-3.47-1.01-6.287-3.032-8.452ZM155.197,47.741c0,2.163-.5,3.674-1.5,4.532-1.001.858-2.932,1.287-5.79,1.287h-34.365v-16.925h34.365c2.858,0,4.788.417,5.79,1.254,1,.837,1.5,2.34,1.5,4.503v5.349Z" fill="#fff" stroke-width="0"/>
    </g>
    <path d="M331.547,64.752L368.18,0h14.519l37.123,64.752h-16.908l-6.703-12.192h-43.164l-6.492,12.192h-15.008ZM360.523,38.901h28.363l-13.967-26.342-14.396,26.342Z" fill="#fff" stroke-width="0"/>
  </g>
</svg>