<svg width="46" height="54" viewBox="0 0 46 54" fill="none" xmlns="http://www.w3.org/2000/svg">
<path d="M4.49007 42.3677C5.0796 44.2651 5.88994 47.0255 6.65961 49.1985C7.92479 52.7704 7.30378 54.2603 10.5769 51.8555C11.609 50.8672 13.196 49.2966 13.4817 48.8103C13.7673 48.324 14.3876 45.874 14.1765 44.8052C13.8709 43.2578 13.7211 42.8624 13.3182 41.4373C12.9152 40.0123 12.6626 38.9391 13.7733 37.7964C14.2239 37.3328 14.4004 36.8816 15.0602 36.5375C16.3351 35.8726 17.3445 35.6097 18.8985 35.4147C20.4093 35.2251 21.6521 34.8171 22.9786 34.516C24.4966 34.1714 25.4279 34.131 27.1162 33.5174C30.4583 32.3027 29.8658 24.8611 29.8658 24.8611C29.8658 24.8611 23.9803 26.1782 22.4082 26.521C20.8391 26.8632 14.8082 28.939 13.4817 29.2401C11.9637 29.5846 11.4161 29.8809 10.5769 27.8747C9.83846 26.1093 13.4195 24.6792 15.421 23.9191C19.0064 22.5576 22.7696 21.6983 26.3751 20.3825C27.6406 19.9207 31.0658 18.959 32.5412 18.4137C34.9515 17.5228 37.7357 16.2188 42.8568 14.0619C45.1944 13.0774 45.9589 -0.000115319 45.9589 -0.000115319C45.9589 -0.000115319 43.2075 0.431456 41.7174 1.07952C40.1965 1.741 38.5255 2.27822 37.1191 2.81259C35.5302 3.41639 33.5567 4.43857 31.788 5.0002C30.3661 5.45172 28.9767 6.17317 27.6185 6.7227C26.3506 7.23571 25.0017 7.59526 23.8221 8.20459C22.4392 8.91888 20.9967 9.75169 18.4599 10.9624C16.187 12.0471 14.8677 12.7327 13.3182 13.6232C11.397 14.7273 9.48207 15.6381 7.96002 16.4293C6.30799 17.288 4.2204 17.9309 2.87105 18.99C1.74602 19.8731 -0.146363 20.3802 0.0605097 21.6576C0.263519 22.9112 -0.394782 27.7966 0.421493 30.6835C0.777952 31.9442 1.04039 33.2301 1.48953 34.4608C1.95139 35.7264 2.34349 37.059 2.92028 38.2549C3.53403 39.5275 3.98734 40.7496 4.49007 42.3677Z" fill="#AE1E22"/>
</svg>
