<svg preserveAspectRatio="none" width="100%" height="100%" overflow="visible" style="display: block;" viewBox="0 0 207 26.7615" fill="none" xmlns="http://www.w3.org/2000/svg">
<g id="LIBERATI_logo">
<path id="Vector" d="M74.0712 26.7611V0H101.465V4.55689H80.299V10.5322H92.6542V15.0891H80.299V21.7223H101.718V26.7611H74.0712Z" fill="var(--fill-0, #F2EAE1)"/>
<g id="Group">
<path id="Vector_2" d="M184.31 4.55689V26.7606H178.082V4.55689H165.803V0H196.64V4.55689H184.31Z" fill="var(--fill-0, #F2EAE1)"/>
<path id="Vector_3" d="M200.772 26.7611V0H207V26.7611H200.772Z" fill="var(--fill-0, #F2EAE1)"/>
</g>
<path id="Vector_4" d="M125.244 16.6591H128.738C130.865 16.6591 132.405 16.2458 133.358 15.418C134.312 14.5915 134.789 13.276 134.789 11.4687V5.19004C134.789 3.36704 134.312 2.04659 133.358 1.22746C132.405 0.409566 130.865 0 128.738 0H105.598V4.55689H125.978C127.059 4.55689 127.797 4.71352 128.194 5.02638C128.59 5.33799 128.789 5.88229 128.789 6.65885V9.64608C128.789 10.4396 128.59 10.9922 128.194 11.3042C127.797 11.617 127.059 11.7724 125.978 11.7724H105.851V26.7615H111.978V16.6595H117.877L128.662 26.7615H137.599L125.244 16.6595V16.6591Z" fill="var(--fill-0, #F2EAE1)"/>
<g id="Group_2">
<g id="Group_3">
<path id="Vector_5" d="M0 26.7611V0H6.2278V21.7223H26.3048V26.7611H0Z" fill="var(--fill-0, #F2EAE1)"/>
<path id="Vector_6" d="M30.4374 26.7611V0H36.6652V26.7611H30.4374Z" fill="var(--fill-0, #F2EAE1)"/>
</g>
<path id="Vector_7" d="M68.6851 14.6088C67.8494 13.7136 66.6641 13.166 65.1283 12.9631C66.6133 12.7771 67.7523 12.3002 68.5458 11.5327C69.3393 10.7653 69.7361 9.73907 69.7361 8.45665V5.19087C69.7361 3.38481 69.2628 2.06808 68.3185 1.24151C67.3725 0.414525 65.8454 0 63.736 0H40.7982V4.55689H61.1277C62.2081 4.55689 62.9549 4.70484 63.3682 4.99951C63.7819 5.29543 63.9885 5.7893 63.9885 6.48032V8.60791C63.9885 9.31711 63.7819 9.8147 63.3682 10.1019C62.9549 10.3892 62.2077 10.5322 61.1277 10.5322H40.7982V26.7611H62.0651C64.7146 26.7611 66.6893 26.3308 67.9891 25.47C69.2889 24.6091 69.9386 23.2924 69.9386 21.5206V18.1019C69.9386 16.6678 69.5212 15.5036 68.6855 14.6088H68.6851ZM64.1406 19.7307C64.1406 20.6246 63.9339 21.2491 63.5207 21.6037C63.107 21.9583 62.3089 22.1356 61.1277 22.1356H46.9252V15.1407H61.1277C62.3089 15.1407 63.1065 15.3131 63.5207 15.659C63.9339 16.0049 64.1406 16.6261 64.1406 17.52V19.7307Z" fill="var(--fill-0, #F2EAE1)"/>
</g>
<path id="Vector_8" d="M137.024 26.7611L152.163 0H158.164L173.506 26.7611H166.519L163.748 21.7223H145.909L143.226 26.7611H137.024ZM148.999 16.0772H160.721L154.949 5.19045L148.999 16.0772Z" fill="var(--fill-0, #F2EAE1)"/>
</g>
</svg>
