<svg preserveAspectRatio="none" width="100%" height="100%" overflow="visible" style="display: block;" viewBox="0 0 26.25 21.25" fill="none" xmlns="http://www.w3.org/2000/svg">
<g id="Container">
<path id="Icon" d="M2.5 17.5V17.5V17.5V17.5V7.5V7.5V7.5C2.5 7.58333 2.5 7.72917 2.5 7.9375C2.5 8.14583 2.5 8.41667 2.5 8.75V16.375V17.5V17.5M2.5 20C1.8125 20 1.22396 19.7552 0.734375 19.2656C0.244792 18.776 0 18.1875 0 17.5V2.5C0 1.8125 0.244792 1.22396 0.734375 0.734375C1.22396 0.244792 1.8125 0 2.5 0V0L5 5H8.75L6.25 0H8.75L11.25 5H15L12.5 0H15L17.5 5H21.25L18.75 0H22.5C23.1875 0 23.776 0.244792 24.2656 0.734375C24.7552 1.22396 25 1.8125 25 2.5V7.5H22.5V7.5H2.5V17.5V17.5V17.5H12.5V20H2.5V20M15 21.25V17.4062L21.9062 10.5312C22.0938 10.3438 22.3021 10.2083 22.5312 10.125C22.7604 10.0417 22.9896 10 23.2188 10C23.4688 10 23.7083 10.0469 23.9375 10.1406C24.1667 10.2344 24.375 10.375 24.5625 10.5625L25.7188 11.7188C25.8854 11.9062 26.0156 12.1146 26.1094 12.3438C26.2031 12.5729 26.25 12.8021 26.25 13.0312C26.25 13.2604 26.2083 13.4948 26.125 13.7344C26.0417 13.974 25.9062 14.1875 25.7188 14.375L18.8438 21.25H15V21.25M24.375 13.0312V13.0312L23.2188 11.875V11.875L24.375 13.0312V13.0312M16.875 19.375H18.0625L21.8438 15.5625L21.2812 14.9688L20.6875 14.4062L16.875 18.1875V19.375V19.375M21.2812 14.9688L20.6875 14.4062V14.4062L21.8438 15.5625V15.5625L21.2812 14.9688V14.9688" fill="var(--fill-0, #AE1E22)"/>
</g>
</svg>
